<svg xmlns="http://www.w3.org/2000/svg" xmlns:xlink="http://www.w3.org/1999/xlink" width="48" zoomAndPan="magnify" viewBox="0 0 36 36.000001" height="48" preserveAspectRatio="xMidYMid meet" version="1.0"><defs><clipPath id="b388111edd"><path d="M 21 9 L 21.996094 9 L 21.996094 14 L 21 14 Z M 21 9 " clip-rule="nonzero"/></clipPath><clipPath id="7fae92ddfb"><path d="M 21 10 L 21.996094 10 L 21.996094 12 L 21 12 Z M 21 10 " clip-rule="nonzero"/></clipPath><clipPath id="29e7884321"><path d="M 14 7.453125 L 20 7.453125 L 20 14 L 14 14 Z M 14 7.453125 " clip-rule="nonzero"/></clipPath><clipPath id="26abc65aad"><path d="M 17 14 L 18 14 L 18 15.480469 L 17 15.480469 Z M 17 14 " clip-rule="nonzero"/></clipPath><clipPath id="39ab95a6c4"><path d="M 13.96875 10 L 15 10 L 15 12 L 13.96875 12 Z M 13.96875 10 " clip-rule="nonzero"/></clipPath><clipPath id="2b95c6ff2d"><path d="M 15 7.453125 L 18 7.453125 L 18 9 L 15 9 Z M 15 7.453125 " clip-rule="nonzero"/></clipPath><clipPath id="7eccf8f57d"><path d="M 18 7.453125 L 19 7.453125 L 19 8 L 18 8 Z M 18 7.453125 " clip-rule="nonzero"/></clipPath><clipPath id="56e3b74682"><path d="M 20 14 L 21.996094 14 L 21.996094 15 L 20 15 Z M 20 14 " clip-rule="nonzero"/></clipPath><clipPath id="31703fde11"><path d="M 7.601562 13 L 28.035156 13 L 28.035156 23 L 7.601562 23 Z M 7.601562 13 " clip-rule="nonzero"/></clipPath><clipPath id="7494f0ff8c"><path d="M 9 23 L 17 23 L 17 27.480469 L 9 27.480469 Z M 9 23 " clip-rule="nonzero"/></clipPath><clipPath id="c469dbe636"><path d="M 7.601562 17 L 27 17 L 27 27.480469 L 7.601562 27.480469 Z M 7.601562 17 " clip-rule="nonzero"/></clipPath><clipPath id="ccdea61f90"><path d="M 19 17 L 28.035156 17 L 28.035156 23 L 19 23 Z M 19 17 " clip-rule="nonzero"/></clipPath><clipPath id="5eb5b00de6"><path d="M 10 12.886719 L 26 12.886719 L 26 22 L 10 22 Z M 10 12.886719 " clip-rule="nonzero"/></clipPath></defs><g clip-path="url(#b388111edd)"><path fill="#037739" d="M 21.140625 9.300781 L 21.128906 9.304688 C 21.085938 9.332031 21.058594 9.363281 21.050781 9.398438 C 21.039062 9.429688 21.035156 9.492188 21.035156 9.585938 C 21.039062 9.621094 21.039062 9.660156 21.039062 9.695312 L 21.121094 11.328125 C 21.152344 11.730469 21.171875 12.039062 21.183594 12.261719 C 21.191406 12.421875 21.195312 12.511719 21.195312 12.539062 C 21.199219 12.609375 21.199219 12.746094 21.199219 12.949219 L 21.203125 13.039062 C 21.203125 13.0625 21.207031 13.082031 21.210938 13.09375 C 21.210938 13.109375 21.214844 13.113281 21.226562 13.113281 C 21.246094 13.113281 21.3125 12.898438 21.425781 12.460938 L 21.324219 10.183594 C 21.328125 10.074219 21.335938 10.019531 21.347656 10.019531 C 21.351562 10.007812 21.378906 10.042969 21.429688 10.117188 C 21.441406 10.125 21.449219 10.125 21.453125 10.113281 C 21.464844 10.097656 21.464844 10.011719 21.460938 9.859375 L 21.140625 9.300781 " fill-opacity="1" fill-rule="nonzero"/></g><g clip-path="url(#7fae92ddfb)"><path fill="#037739" d="M 21.804688 10.839844 L 21.804688 10.835938 C 21.8125 10.820312 21.8125 10.804688 21.808594 10.792969 C 21.796875 10.769531 21.785156 10.757812 21.773438 10.753906 C 21.75 10.742188 21.722656 10.753906 21.6875 10.789062 C 21.644531 10.835938 21.601562 10.898438 21.558594 10.96875 C 21.527344 11.035156 21.507812 11.074219 21.503906 11.085938 C 21.492188 11.113281 21.480469 11.140625 21.472656 11.167969 C 21.445312 11.246094 21.433594 11.316406 21.4375 11.378906 C 21.4375 11.441406 21.453125 11.484375 21.480469 11.507812 C 21.503906 11.527344 21.539062 11.527344 21.585938 11.511719 C 21.628906 11.5 21.691406 11.464844 21.777344 11.410156 L 21.808594 11.226562 C 21.726562 11.273438 21.667969 11.292969 21.640625 11.292969 C 21.625 11.289062 21.613281 11.285156 21.609375 11.273438 C 21.605469 11.269531 21.601562 11.261719 21.601562 11.253906 C 21.597656 11.25 21.597656 11.238281 21.597656 11.214844 C 21.601562 11.167969 21.621094 11.113281 21.65625 11.050781 C 21.675781 11.015625 21.699219 10.980469 21.722656 10.941406 L 21.804688 10.839844 " fill-opacity="1" fill-rule="nonzero"/></g><path fill="#037739" d="M 20.132812 12.589844 L 20.140625 12.59375 C 20.160156 12.597656 20.167969 12.601562 20.171875 12.601562 C 20.179688 12.609375 20.1875 12.613281 20.195312 12.617188 C 20.222656 12.640625 20.242188 12.664062 20.253906 12.6875 C 20.261719 12.703125 20.265625 12.71875 20.269531 12.738281 C 20.273438 12.769531 20.269531 12.796875 20.265625 12.816406 C 20.261719 12.847656 20.257812 12.863281 20.257812 12.867188 C 20.25 12.898438 20.246094 12.917969 20.242188 12.925781 C 20.230469 12.953125 20.21875 12.972656 20.207031 12.988281 C 20.203125 12.992188 20.191406 13.003906 20.171875 13.019531 C 20.164062 13.023438 20.15625 13.03125 20.144531 13.035156 C 20.121094 13.046875 20.097656 13.054688 20.074219 13.050781 C 20.054688 13.050781 20.039062 13.042969 20.035156 13.035156 C 20.023438 13.019531 20.011719 13.003906 20.007812 12.992188 C 20.003906 12.96875 19.996094 12.941406 19.992188 12.914062 C 19.992188 12.894531 19.992188 12.878906 19.992188 12.875 C 19.992188 12.855469 19.992188 12.835938 19.992188 12.820312 C 20 12.773438 20.019531 12.714844 20.058594 12.65625 C 20.089844 12.609375 20.113281 12.589844 20.132812 12.589844 M 20.640625 8.71875 L 20.605469 8.730469 C 20.519531 8.761719 20.472656 8.835938 20.480469 8.949219 C 20.628906 10.933594 20.734375 12.390625 20.78125 13.324219 L 20.609375 13.503906 C 20.453125 13.613281 20.292969 13.585938 20.140625 13.421875 C 20.128906 13.394531 20.136719 13.367188 20.160156 13.335938 C 20.253906 13.269531 20.359375 13.175781 20.433594 13.027344 C 20.5 12.898438 20.511719 12.78125 20.5 12.6875 C 20.472656 12.507812 20.425781 12.378906 20.34375 12.328125 C 20.253906 12.269531 20.167969 12.265625 20.101562 12.304688 C 19.976562 12.371094 19.894531 12.460938 19.855469 12.566406 C 19.828125 12.648438 19.8125 12.730469 19.808594 12.816406 L 19.816406 13.097656 L 19.832031 13.167969 C 19.832031 13.199219 19.824219 13.21875 19.8125 13.234375 C 19.792969 13.261719 19.746094 13.289062 19.675781 13.324219 L 19.148438 13.523438 C 19.085938 13.554688 19.019531 13.59375 18.957031 13.640625 L 18.769531 13.820312 C 18.632812 14.015625 18.445312 14.242188 18.203125 14.503906 C 18.097656 14.613281 18.003906 14.671875 17.917969 14.671875 C 17.730469 14.589844 17.691406 14.324219 17.792969 13.871094 C 18.117188 13.605469 18.28125 13.398438 18.28125 13.25 C 18.285156 13.167969 18.265625 13.066406 18.230469 12.949219 L 18.054688 12.507812 C 18.050781 12.488281 18.0625 12.476562 18.078125 12.472656 L 18.246094 12.5 C 18.261719 12.496094 18.269531 12.488281 18.265625 12.476562 C 18.128906 12.273438 18.011719 12.125 17.914062 12.027344 C 17.828125 11.941406 17.773438 12.070312 17.753906 12.417969 L 18.0625 13.023438 C 18.105469 13.144531 18.109375 13.226562 18.078125 13.265625 C 18.0625 13.34375 17.917969 13.472656 17.640625 13.636719 C 17.382812 13.789062 17.1875 13.871094 17.066406 13.914062 C 16.550781 14.105469 16.175781 14.117188 15.925781 13.9375 C 15.808594 13.855469 15.710938 13.742188 15.644531 13.574219 C 15.617188 13.507812 15.613281 13.261719 15.636719 12.835938 L 15.472656 12.894531 C 15.3125 13.699219 15.390625 14.195312 15.707031 14.382812 C 15.945312 14.523438 16.195312 14.574219 16.464844 14.539062 C 16.707031 14.507812 17.0625 14.34375 17.53125 14.054688 C 17.503906 14.339844 17.503906 14.496094 17.527344 14.519531 C 17.542969 14.605469 17.574219 14.675781 17.617188 14.734375 C 17.65625 14.792969 17.710938 14.835938 17.777344 14.867188 L 17.882812 14.90625 C 17.988281 14.929688 18.050781 14.929688 18.074219 14.914062 C 18.148438 14.894531 18.234375 14.832031 18.335938 14.738281 C 18.371094 14.710938 18.578125 14.457031 18.953125 13.96875 C 18.980469 13.9375 19.027344 13.902344 19.101562 13.863281 L 19.949219 13.492188 C 20.007812 13.777344 20.1875 13.921875 20.480469 13.851562 C 20.660156 13.8125 20.789062 13.632812 20.898438 13.386719 C 20.90625 13.367188 20.929688 13.292969 20.964844 13.164062 L 20.78125 9.375 C 20.875 9.488281 20.917969 9.46875 20.90625 9.316406 C 20.90625 9.285156 20.898438 9.25 20.878906 9.214844 C 20.75 8.996094 20.667969 8.832031 20.640625 8.71875 Z M 20.640625 8.71875 " fill-opacity="1" fill-rule="nonzero"/><path fill="#037739" d="M 20.089844 8.871094 L 20.097656 8.882812 C 20.144531 8.949219 20.175781 8.976562 20.191406 8.964844 C 20.203125 8.953125 20.210938 8.933594 20.214844 8.902344 C 20.214844 8.851562 20.214844 8.8125 20.207031 8.785156 C 20.203125 8.753906 20.191406 8.726562 20.179688 8.699219 L 20.070312 8.480469 C 20.058594 8.460938 20.03125 8.390625 19.984375 8.273438 L 19.957031 8.214844 C 19.929688 8.167969 19.898438 8.160156 19.867188 8.183594 C 19.820312 8.222656 19.792969 8.273438 19.789062 8.335938 C 19.789062 8.363281 19.800781 8.398438 19.820312 8.4375 C 19.878906 9.660156 19.921875 10.511719 19.949219 10.988281 C 19.972656 11.386719 19.988281 11.597656 20.003906 11.621094 C 20.007812 11.625 20.011719 11.625 20.015625 11.613281 C 20.066406 11.472656 20.101562 11.363281 20.125 11.289062 C 20.152344 11.199219 20.167969 11.117188 20.175781 11.042969 L 20.085938 9.671875 L 20.070312 9.335938 C 20.0625 9.105469 20.058594 8.972656 20.0625 8.941406 C 20.0625 8.875 20.074219 8.851562 20.089844 8.871094 " fill-opacity="1" fill-rule="nonzero"/><path fill="#037739" d="M 18.550781 9.964844 L 18.5625 9.976562 C 18.613281 10.042969 18.648438 10.070312 18.667969 10.058594 C 18.691406 10.054688 18.710938 10 18.730469 9.890625 C 18.691406 9.832031 18.621094 9.695312 18.511719 9.472656 C 18.488281 9.425781 18.464844 9.390625 18.441406 9.359375 C 18.398438 9.300781 18.363281 9.285156 18.328125 9.3125 C 18.3125 9.320312 18.289062 9.359375 18.25 9.429688 C 18.234375 9.460938 18.226562 9.496094 18.226562 9.527344 C 18.222656 9.570312 18.230469 9.632812 18.242188 9.710938 C 18.316406 11.546875 18.367188 12.664062 18.394531 13.070312 C 18.417969 13.402344 18.433594 13.601562 18.445312 13.675781 C 18.457031 13.78125 18.472656 13.851562 18.492188 13.890625 C 18.503906 13.914062 18.515625 13.902344 18.535156 13.855469 C 18.59375 13.625 18.652344 13.433594 18.710938 13.273438 L 18.550781 9.964844 " fill-opacity="1" fill-rule="nonzero"/><path fill="#037739" d="M 20.191406 11.6875 L 20.136719 11.765625 L 19.921875 11.699219 L 19.726562 11.957031 L 20.035156 12.167969 L 20.183594 11.960938 L 20.378906 12.070312 L 20.597656 11.769531 L 20.285156 11.570312 L 20.191406 11.6875 " fill-opacity="1" fill-rule="nonzero"/><path fill="#037739" d="M 19.152344 14.269531 L 19.167969 14.273438 C 19.265625 14.289062 19.332031 14.316406 19.363281 14.355469 C 19.375 14.367188 19.390625 14.390625 19.414062 14.421875 L 19.527344 14.632812 C 19.554688 14.675781 19.570312 14.699219 19.582031 14.707031 C 19.613281 14.734375 19.648438 14.734375 19.699219 14.703125 C 19.703125 14.703125 19.707031 14.699219 19.710938 14.699219 C 19.730469 14.609375 19.742188 14.550781 19.746094 14.519531 C 19.753906 14.488281 19.753906 14.460938 19.757812 14.429688 L 19.761719 14.265625 C 19.761719 14.242188 19.765625 14.226562 19.773438 14.207031 C 19.789062 14.1875 19.808594 14.183594 19.839844 14.199219 C 19.855469 14.207031 19.867188 14.214844 19.878906 14.226562 L 19.941406 14.292969 C 19.949219 14.300781 19.957031 14.300781 19.964844 14.300781 C 19.976562 14.300781 19.992188 14.292969 20.011719 14.277344 C 20.027344 14.234375 20.035156 14.203125 20.039062 14.183594 C 20.058594 14.101562 20.054688 14.039062 20.027344 13.996094 C 19.988281 13.933594 19.941406 13.898438 19.890625 13.890625 C 19.816406 13.878906 19.753906 13.902344 19.707031 13.964844 C 19.6875 13.988281 19.671875 14.015625 19.65625 14.039062 C 19.644531 14.164062 19.625 14.230469 19.59375 14.242188 C 19.585938 14.246094 19.578125 14.242188 19.570312 14.234375 C 19.527344 14.167969 19.496094 14.132812 19.480469 14.125 C 19.457031 14.101562 19.425781 14.082031 19.390625 14.066406 C 19.289062 14.023438 19.207031 14.015625 19.152344 14.046875 C 19.125 14.058594 19.105469 14.074219 19.089844 14.097656 C 19.070312 14.132812 19.058594 14.15625 19.0625 14.175781 C 19.0625 14.195312 19.070312 14.210938 19.085938 14.226562 C 19.097656 14.238281 19.117188 14.253906 19.152344 14.269531 " fill-opacity="1" fill-rule="nonzero"/><g clip-path="url(#29e7884321)"><path fill="#037739" d="M 19.351562 8.558594 L 19.371094 8.574219 C 19.464844 8.671875 19.507812 8.617188 19.5 8.414062 C 19.425781 8.289062 19.339844 8.125 19.238281 7.914062 C 19.160156 7.792969 19.101562 7.847656 19.0625 8.074219 C 19.058594 8.132812 19.058594 8.226562 19.070312 8.363281 C 19.210938 9.945312 19.285156 10.988281 19.300781 11.488281 C 19.304688 11.578125 19.296875 11.644531 19.273438 11.683594 C 19.230469 11.726562 19.167969 11.757812 19.082031 11.777344 C 18.984375 11.804688 18.855469 11.761719 18.695312 11.65625 C 18.296875 11.394531 17.21875 10.699219 15.453125 9.574219 C 15.390625 9.53125 15.363281 9.5 15.371094 9.484375 C 15.335938 9.445312 15.464844 9.363281 15.753906 9.234375 C 16.449219 8.945312 16.941406 8.75 17.230469 8.652344 C 17.769531 8.460938 18.152344 8.386719 18.371094 8.425781 C 18.566406 8.460938 18.625 8.570312 18.550781 8.746094 C 18.519531 8.808594 18.476562 8.863281 18.417969 8.90625 L 18.105469 9.117188 C 18.0625 9.148438 18.023438 9.1875 17.980469 9.238281 C 17.90625 9.34375 17.828125 9.464844 17.75 9.613281 C 17.660156 9.773438 17.628906 9.847656 17.660156 9.832031 C 18.011719 9.457031 18.347656 9.136719 18.664062 8.882812 C 18.707031 8.84375 18.742188 8.800781 18.769531 8.757812 C 18.894531 8.53125 18.871094 8.328125 18.707031 8.148438 C 18.605469 8.003906 18.070312 8.082031 17.09375 8.378906 C 16.058594 8.695312 15.410156 8.976562 15.140625 9.214844 C 15.09375 9.257812 15.050781 9.332031 15.007812 9.4375 C 15.003906 9.480469 15.015625 9.519531 15.050781 9.554688 C 15.125 9.636719 15.214844 9.714844 15.316406 9.785156 L 16.230469 10.445312 C 16.394531 10.570312 16.542969 10.695312 16.671875 10.816406 C 16.992188 11.117188 17.160156 11.386719 17.1875 11.625 C 17.175781 11.71875 17.128906 11.785156 17.035156 11.820312 C 17.027344 11.828125 16.976562 11.84375 16.890625 11.867188 C 16.601562 11.917969 16.421875 11.957031 16.355469 11.980469 C 16.210938 12.027344 16.105469 12.074219 16.042969 12.117188 C 15.957031 12.167969 15.871094 12.230469 15.785156 12.304688 C 15.460938 12.601562 15.273438 12.769531 15.222656 12.804688 C 15.113281 12.890625 15 12.945312 14.882812 12.964844 C 14.769531 12.980469 14.707031 12.917969 14.6875 12.78125 C 14.675781 12.484375 14.738281 12.203125 14.871094 11.941406 L 14.722656 11.867188 C 14.570312 12.230469 14.488281 12.496094 14.488281 12.664062 C 14.492188 12.945312 14.554688 13.125 14.679688 13.210938 C 14.800781 13.308594 14.976562 13.304688 15.203125 13.203125 C 15.253906 13.183594 15.332031 13.132812 15.441406 13.042969 C 15.480469 13.015625 15.621094 12.878906 15.871094 12.632812 C 15.949219 12.558594 16.035156 12.496094 16.125 12.441406 C 16.230469 12.382812 16.3125 12.347656 16.371094 12.332031 L 16.929688 12.183594 C 16.984375 12.167969 17.046875 12.132812 17.117188 12.078125 C 17.171875 12.042969 17.234375 11.929688 17.308594 11.746094 C 17.351562 11.644531 17.371094 11.5625 17.367188 11.496094 C 17.367188 11.445312 17.355469 11.386719 17.332031 11.328125 C 17.300781 11.253906 17.242188 11.144531 17.15625 11.007812 C 17.136719 10.972656 17.132812 10.953125 17.144531 10.957031 C 17.171875 10.960938 17.238281 10.996094 17.335938 11.070312 L 18.273438 11.773438 C 18.4375 11.890625 18.585938 11.976562 18.710938 12.035156 C 18.824219 12.085938 18.9375 12.105469 19.046875 12.089844 C 19.226562 12.050781 19.351562 11.996094 19.421875 11.917969 C 19.519531 11.832031 19.5625 11.617188 19.546875 11.277344 L 19.351562 8.558594 " fill-opacity="1" fill-rule="nonzero"/></g><path fill="#037739" d="M 17.058594 9.167969 L 17.058594 9.203125 C 17.054688 9.371094 17.0625 9.492188 17.078125 9.570312 L 17.195312 10 C 17.203125 10.039062 17.191406 10.074219 17.164062 10.101562 C 16.972656 10.140625 16.734375 10.257812 16.453125 10.453125 C 16.25 10.585938 16.109375 10.691406 16.019531 10.765625 C 15.980469 10.792969 15.820312 10.9375 15.539062 11.191406 C 15.46875 11.25 15.394531 11.308594 15.316406 11.367188 C 15.089844 11.53125 14.933594 11.609375 14.84375 11.605469 C 14.734375 11.609375 14.695312 11.488281 14.730469 11.238281 C 14.753906 11.101562 14.785156 10.984375 14.828125 10.882812 C 14.847656 10.832031 14.871094 10.78125 14.898438 10.726562 C 15.058594 10.4375 15.128906 10.296875 15.113281 10.3125 C 15.128906 10.261719 15.117188 10.25 15.070312 10.273438 C 14.902344 10.386719 14.765625 10.558594 14.65625 10.789062 C 14.523438 11.082031 14.453125 11.351562 14.449219 11.597656 C 14.457031 11.769531 14.5 11.878906 14.585938 11.925781 C 14.707031 12 14.851562 12.007812 15.011719 11.957031 C 15.128906 11.917969 15.246094 11.851562 15.367188 11.757812 C 15.425781 11.710938 15.488281 11.660156 15.546875 11.605469 L 15.59375 11.5625 C 15.933594 11.238281 16.171875 11.023438 16.308594 10.914062 C 16.539062 10.726562 16.71875 10.601562 16.847656 10.539062 C 16.996094 10.453125 17.136719 10.414062 17.269531 10.414062 C 17.378906 10.410156 17.542969 10.453125 17.765625 10.539062 C 17.796875 10.546875 17.820312 10.542969 17.839844 10.527344 C 17.886719 10.460938 17.894531 10.367188 17.867188 10.25 C 17.570312 10.125 17.386719 9.960938 17.320312 9.753906 C 17.269531 9.609375 17.246094 9.445312 17.242188 9.253906 C 17.394531 9.324219 17.445312 9.320312 17.394531 9.238281 L 17.140625 8.863281 C 17.113281 8.820312 17.09375 8.800781 17.082031 8.796875 C 17.042969 8.8125 16.992188 8.917969 16.941406 9.121094 C 16.9375 9.140625 16.941406 9.148438 16.953125 9.152344 C 16.953125 9.15625 16.988281 9.160156 17.058594 9.167969 " fill-opacity="1" fill-rule="nonzero"/><path fill="#037739" d="M 16.160156 11.292969 L 15.945312 11.597656 L 16.28125 11.8125 L 16.429688 11.570312 L 16.679688 11.6875 L 16.839844 11.371094 L 16.550781 11.199219 L 16.386719 11.421875 L 16.160156 11.292969 " fill-opacity="1" fill-rule="nonzero"/><path fill="#037739" d="M 16.9375 12.84375 L 16.824219 12.980469 L 16.710938 13.121094 C 16.808594 13.199219 16.910156 13.277344 17.011719 13.355469 C 17.082031 13.25 17.15625 13.144531 17.226562 13.039062 L 16.9375 12.84375 " fill-opacity="1" fill-rule="nonzero"/><path fill="#037739" d="M 18.671875 14.488281 L 18.675781 14.488281 C 18.71875 14.472656 18.765625 14.460938 18.808594 14.457031 C 18.847656 14.453125 18.867188 14.460938 18.867188 14.476562 L 18.867188 14.484375 L 18.863281 14.515625 L 18.855469 14.546875 C 18.851562 14.570312 18.839844 14.589844 18.832031 14.609375 C 18.820312 14.628906 18.808594 14.648438 18.792969 14.667969 L 18.714844 14.78125 L 18.695312 14.808594 C 18.675781 14.839844 18.664062 14.863281 18.664062 14.875 C 18.652344 14.90625 18.648438 14.933594 18.652344 14.957031 C 18.65625 14.964844 18.660156 14.96875 18.664062 14.96875 L 18.671875 14.972656 L 18.707031 14.96875 L 18.734375 14.957031 C 18.753906 14.945312 18.769531 14.933594 18.785156 14.917969 L 18.804688 14.890625 C 18.820312 14.875 18.832031 14.851562 18.84375 14.832031 C 18.855469 14.808594 18.867188 14.789062 18.878906 14.765625 L 18.925781 14.671875 C 18.960938 14.601562 18.984375 14.550781 19 14.515625 C 19.007812 14.496094 19.015625 14.472656 19.023438 14.453125 L 19.03125 14.421875 L 19.035156 14.390625 L 19.03125 14.359375 C 19.027344 14.3125 19.007812 14.28125 18.984375 14.269531 C 18.972656 14.261719 18.957031 14.261719 18.9375 14.261719 L 18.914062 14.261719 C 18.898438 14.265625 18.878906 14.269531 18.859375 14.277344 C 18.800781 14.300781 18.753906 14.332031 18.710938 14.378906 C 18.699219 14.390625 18.691406 14.40625 18.683594 14.421875 L 18.671875 14.441406 C 18.671875 14.453125 18.671875 14.46875 18.671875 14.488281 " fill-opacity="1" fill-rule="nonzero"/><path fill="#037739" d="M 16.457031 13.566406 L 16.460938 13.566406 C 16.472656 13.566406 16.484375 13.570312 16.488281 13.570312 C 16.511719 13.570312 16.535156 13.570312 16.558594 13.574219 C 16.589844 13.578125 16.609375 13.582031 16.613281 13.582031 C 16.640625 13.59375 16.652344 13.601562 16.652344 13.605469 C 16.660156 13.609375 16.664062 13.617188 16.667969 13.625 L 16.667969 13.640625 L 16.660156 13.660156 L 16.652344 13.683594 L 16.640625 13.703125 C 16.628906 13.714844 16.617188 13.726562 16.605469 13.738281 C 16.558594 13.773438 16.511719 13.792969 16.457031 13.800781 C 16.410156 13.804688 16.375 13.796875 16.351562 13.78125 L 16.320312 13.757812 L 16.296875 13.726562 L 16.273438 13.648438 L 16.273438 13.558594 L 16.28125 13.511719 C 16.285156 13.476562 16.292969 13.445312 16.304688 13.414062 C 16.304688 13.402344 16.320312 13.351562 16.351562 13.265625 L 16.355469 13.246094 L 16.371094 13.15625 L 16.375 13.136719 C 16.382812 13.109375 16.394531 13.09375 16.414062 13.082031 C 16.425781 13.078125 16.433594 13.078125 16.4375 13.078125 L 16.464844 13.085938 L 16.484375 13.101562 L 16.488281 13.128906 L 16.488281 13.164062 C 16.488281 13.1875 16.484375 13.21875 16.476562 13.25 C 16.453125 13.332031 16.445312 13.382812 16.441406 13.398438 L 16.433594 13.445312 L 16.429688 13.492188 L 16.4375 13.53125 L 16.4375 13.535156 C 16.441406 13.542969 16.449219 13.554688 16.457031 13.566406 " fill-opacity="1" fill-rule="nonzero"/><path fill="#037739" d="M 17.589844 13.011719 L 17.59375 13.011719 C 17.605469 13.015625 17.617188 13.015625 17.621094 13.015625 C 17.644531 13.015625 17.667969 13.015625 17.691406 13.019531 C 17.722656 13.023438 17.742188 13.027344 17.746094 13.03125 C 17.769531 13.039062 17.785156 13.046875 17.785156 13.050781 C 17.792969 13.058594 17.796875 13.066406 17.796875 13.074219 L 17.800781 13.085938 C 17.796875 13.097656 17.796875 13.105469 17.792969 13.117188 C 17.792969 13.121094 17.785156 13.136719 17.773438 13.160156 C 17.765625 13.179688 17.753906 13.195312 17.738281 13.210938 C 17.707031 13.242188 17.671875 13.257812 17.632812 13.261719 C 17.519531 13.265625 17.445312 13.226562 17.414062 13.136719 L 17.40625 13.09375 L 17.40625 13.003906 L 17.414062 12.957031 C 17.417969 12.925781 17.425781 12.894531 17.433594 12.859375 C 17.4375 12.847656 17.453125 12.800781 17.484375 12.710938 L 17.488281 12.691406 L 17.503906 12.605469 L 17.507812 12.585938 C 17.515625 12.558594 17.527344 12.539062 17.546875 12.53125 C 17.558594 12.527344 17.566406 12.523438 17.570312 12.527344 L 17.597656 12.53125 L 17.613281 12.550781 L 17.621094 12.574219 L 17.621094 12.609375 C 17.621094 12.636719 17.613281 12.664062 17.605469 12.699219 C 17.585938 12.78125 17.574219 12.828125 17.574219 12.847656 L 17.566406 12.894531 L 17.5625 12.9375 L 17.566406 12.976562 L 17.570312 12.980469 C 17.574219 12.992188 17.582031 13 17.589844 13.011719 " fill-opacity="1" fill-rule="nonzero"/><path fill="#037739" d="M 15.0625 12.433594 L 15.0625 12.4375 L 15.085938 12.449219 C 15.117188 12.453125 15.144531 12.464844 15.167969 12.472656 C 15.203125 12.488281 15.21875 12.5 15.222656 12.503906 C 15.234375 12.511719 15.242188 12.519531 15.25 12.527344 L 15.253906 12.542969 L 15.257812 12.554688 L 15.253906 12.570312 C 15.25 12.585938 15.234375 12.609375 15.207031 12.640625 C 15.191406 12.65625 15.175781 12.667969 15.15625 12.679688 C 15.117188 12.703125 15.074219 12.710938 15.03125 12.703125 C 14.976562 12.691406 14.929688 12.667969 14.890625 12.628906 L 14.867188 12.59375 L 14.851562 12.554688 L 14.847656 12.511719 L 14.847656 12.46875 L 14.859375 12.421875 C 14.867188 12.390625 14.878906 12.359375 14.894531 12.328125 C 14.910156 12.296875 14.925781 12.265625 14.945312 12.238281 C 14.949219 12.226562 14.980469 12.179688 15.035156 12.097656 L 15.046875 12.078125 L 15.082031 12 L 15.09375 11.980469 C 15.105469 11.953125 15.121094 11.9375 15.140625 11.929688 C 15.160156 11.925781 15.175781 11.929688 15.195312 11.9375 L 15.207031 11.957031 L 15.214844 11.980469 L 15.210938 12.011719 C 15.207031 12.03125 15.195312 12.054688 15.183594 12.082031 L 15.164062 12.121094 L 15.101562 12.238281 C 15.089844 12.265625 15.078125 12.285156 15.070312 12.308594 C 15.058594 12.332031 15.058594 12.375 15.0625 12.433594 " fill-opacity="1" fill-rule="nonzero"/><path fill="#037739" d="M 15.429688 10.78125 C 15.445312 10.789062 15.453125 10.792969 15.460938 10.792969 C 15.464844 10.796875 15.492188 10.796875 15.542969 10.800781 C 15.550781 10.804688 15.558594 10.804688 15.566406 10.804688 C 15.582031 10.8125 15.59375 10.816406 15.597656 10.820312 C 15.609375 10.828125 15.621094 10.84375 15.625 10.859375 C 15.632812 10.882812 15.632812 10.894531 15.628906 10.90625 C 15.609375 10.953125 15.582031 10.992188 15.546875 11.015625 C 15.527344 11.03125 15.507812 11.039062 15.488281 11.046875 C 15.46875 11.050781 15.453125 11.054688 15.4375 11.054688 C 15.394531 11.054688 15.351562 11.039062 15.296875 11.007812 C 15.277344 10.992188 15.265625 10.984375 15.261719 10.980469 L 15.234375 10.945312 L 15.21875 10.90625 L 15.214844 10.863281 L 15.214844 10.820312 L 15.238281 10.726562 C 15.25 10.691406 15.265625 10.660156 15.28125 10.628906 C 15.296875 10.597656 15.3125 10.566406 15.332031 10.539062 L 15.394531 10.441406 L 15.402344 10.421875 L 15.4375 10.335938 C 15.445312 10.324219 15.453125 10.3125 15.460938 10.300781 C 15.464844 10.289062 15.472656 10.28125 15.484375 10.273438 L 15.5 10.265625 C 15.511719 10.261719 15.523438 10.265625 15.535156 10.269531 C 15.558594 10.285156 15.5625 10.320312 15.550781 10.382812 C 15.546875 10.394531 15.542969 10.417969 15.527344 10.449219 C 15.523438 10.464844 15.515625 10.476562 15.507812 10.492188 C 15.476562 10.554688 15.457031 10.597656 15.449219 10.609375 C 15.4375 10.636719 15.429688 10.664062 15.421875 10.6875 C 15.414062 10.707031 15.410156 10.726562 15.414062 10.746094 C 15.414062 10.761719 15.421875 10.769531 15.429688 10.78125 " fill-opacity="1" fill-rule="nonzero"/><path fill="#037739" d="M 14.546875 9.875 C 14.5625 9.882812 14.570312 9.886719 14.578125 9.890625 C 14.582031 9.890625 14.605469 9.894531 14.65625 9.898438 C 14.664062 9.902344 14.667969 9.902344 14.675781 9.902344 C 14.691406 9.910156 14.703125 9.914062 14.707031 9.917969 C 14.71875 9.929688 14.726562 9.941406 14.734375 9.960938 C 14.738281 9.980469 14.738281 9.992188 14.734375 10 C 14.722656 10.035156 14.699219 10.066406 14.664062 10.097656 C 14.628906 10.125 14.589844 10.136719 14.550781 10.136719 C 14.53125 10.136719 14.507812 10.132812 14.488281 10.128906 C 14.476562 10.125 14.464844 10.121094 14.457031 10.117188 C 14.433594 10.105469 14.417969 10.097656 14.414062 10.09375 C 14.394531 10.074219 14.382812 10.066406 14.378906 10.0625 L 14.355469 10.027344 L 14.34375 9.988281 L 14.335938 9.949219 L 14.339844 9.90625 L 14.351562 9.863281 L 14.367188 9.816406 C 14.378906 9.785156 14.390625 9.753906 14.410156 9.726562 C 14.425781 9.695312 14.441406 9.667969 14.460938 9.640625 L 14.523438 9.546875 L 14.535156 9.53125 L 14.570312 9.449219 C 14.578125 9.4375 14.582031 9.425781 14.589844 9.417969 C 14.617188 9.382812 14.640625 9.375 14.664062 9.386719 C 14.6875 9.402344 14.691406 9.4375 14.675781 9.496094 C 14.675781 9.507812 14.667969 9.53125 14.652344 9.5625 C 14.648438 9.574219 14.640625 9.585938 14.632812 9.601562 C 14.597656 9.660156 14.578125 9.699219 14.574219 9.710938 C 14.558594 9.738281 14.550781 9.765625 14.542969 9.785156 C 14.535156 9.804688 14.53125 9.824219 14.53125 9.84375 C 14.535156 9.855469 14.539062 9.867188 14.546875 9.875 " fill-opacity="1" fill-rule="nonzero"/><path fill="#037739" d="M 15.25 8.789062 C 15.261719 8.796875 15.269531 8.804688 15.277344 8.804688 C 15.28125 8.808594 15.304688 8.8125 15.351562 8.820312 L 15.375 8.824219 C 15.390625 8.832031 15.398438 8.835938 15.402344 8.839844 C 15.414062 8.847656 15.421875 8.863281 15.425781 8.878906 C 15.429688 8.898438 15.429688 8.914062 15.425781 8.921875 C 15.40625 8.964844 15.375 9 15.339844 9.019531 C 15.320312 9.03125 15.300781 9.039062 15.28125 9.042969 C 15.265625 9.046875 15.25 9.046875 15.234375 9.046875 C 15.1875 9.039062 15.148438 9.023438 15.109375 8.996094 C 15.089844 8.980469 15.078125 8.96875 15.078125 8.964844 L 15.054688 8.929688 L 15.042969 8.890625 L 15.042969 8.851562 L 15.046875 8.8125 L 15.058594 8.769531 L 15.074219 8.726562 C 15.089844 8.695312 15.101562 8.667969 15.121094 8.636719 C 15.136719 8.609375 15.15625 8.582031 15.175781 8.558594 C 15.191406 8.539062 15.214844 8.507812 15.246094 8.464844 L 15.339844 8.335938 C 15.351562 8.316406 15.367188 8.3125 15.386719 8.320312 C 15.40625 8.335938 15.40625 8.371094 15.390625 8.429688 C 15.386719 8.441406 15.378906 8.460938 15.363281 8.488281 C 15.359375 8.5 15.351562 8.515625 15.34375 8.527344 L 15.28125 8.632812 C 15.265625 8.65625 15.257812 8.683594 15.246094 8.703125 C 15.238281 8.722656 15.234375 8.738281 15.238281 8.757812 C 15.238281 8.769531 15.242188 8.78125 15.25 8.789062 " fill-opacity="1" fill-rule="nonzero"/><path fill="#037739" d="M 17.789062 9 C 17.800781 9.007812 17.8125 9.011719 17.820312 9.015625 C 17.824219 9.015625 17.851562 9.019531 17.902344 9.023438 C 17.910156 9.023438 17.917969 9.023438 17.921875 9.027344 C 17.941406 9.03125 17.953125 9.035156 17.953125 9.039062 C 17.96875 9.050781 17.976562 9.0625 17.984375 9.082031 C 17.992188 9.101562 17.992188 9.117188 17.988281 9.125 C 17.96875 9.175781 17.941406 9.210938 17.902344 9.238281 C 17.886719 9.25 17.867188 9.261719 17.84375 9.265625 C 17.828125 9.273438 17.8125 9.273438 17.792969 9.273438 C 17.753906 9.277344 17.707031 9.261719 17.65625 9.230469 C 17.636719 9.214844 17.621094 9.203125 17.621094 9.199219 L 17.59375 9.164062 L 17.578125 9.128906 L 17.574219 9.085938 L 17.574219 9.039062 L 17.582031 8.992188 L 17.597656 8.945312 C 17.609375 8.914062 17.621094 8.882812 17.640625 8.851562 C 17.65625 8.820312 17.671875 8.789062 17.691406 8.757812 C 17.703125 8.738281 17.726562 8.703125 17.757812 8.65625 C 17.804688 8.578125 17.832031 8.53125 17.847656 8.507812 C 17.859375 8.488281 17.875 8.480469 17.894531 8.488281 C 17.917969 8.503906 17.921875 8.542969 17.910156 8.605469 C 17.90625 8.617188 17.898438 8.636719 17.886719 8.671875 C 17.878906 8.683594 17.875 8.699219 17.867188 8.710938 C 17.835938 8.777344 17.816406 8.816406 17.808594 8.832031 C 17.796875 8.859375 17.785156 8.886719 17.777344 8.910156 C 17.773438 8.929688 17.769531 8.949219 17.773438 8.96875 C 17.773438 8.980469 17.78125 8.992188 17.789062 9 " fill-opacity="1" fill-rule="nonzero"/><path fill="#037739" d="M 18.871094 9.335938 L 18.875 9.335938 C 18.886719 9.34375 18.898438 9.347656 18.90625 9.347656 C 18.910156 9.351562 18.9375 9.351562 18.984375 9.355469 C 18.992188 9.355469 19 9.359375 19.007812 9.359375 C 19.027344 9.367188 19.035156 9.371094 19.039062 9.375 C 19.050781 9.382812 19.0625 9.398438 19.070312 9.414062 C 19.074219 9.4375 19.074219 9.449219 19.074219 9.457031 C 19.054688 9.507812 19.027344 9.546875 18.988281 9.570312 C 18.96875 9.585938 18.949219 9.59375 18.929688 9.601562 C 18.914062 9.605469 18.894531 9.609375 18.878906 9.609375 C 18.839844 9.609375 18.792969 9.59375 18.742188 9.5625 C 18.71875 9.546875 18.707031 9.539062 18.703125 9.535156 L 18.679688 9.5 L 18.664062 9.460938 L 18.65625 9.417969 L 18.660156 9.375 L 18.667969 9.328125 L 18.683594 9.28125 C 18.695312 9.246094 18.707031 9.214844 18.722656 9.183594 C 18.738281 9.152344 18.757812 9.121094 18.773438 9.09375 C 18.789062 9.070312 18.808594 9.035156 18.84375 8.988281 C 18.886719 8.910156 18.917969 8.863281 18.929688 8.84375 C 18.945312 8.820312 18.960938 8.816406 18.976562 8.824219 C 19 8.839844 19.007812 8.875 18.992188 8.9375 C 18.992188 8.949219 18.984375 8.972656 18.972656 9.003906 C 18.964844 9.019531 18.960938 9.03125 18.953125 9.046875 C 18.917969 9.109375 18.898438 9.152344 18.894531 9.164062 C 18.882812 9.191406 18.871094 9.21875 18.863281 9.242188 C 18.855469 9.261719 18.855469 9.28125 18.855469 9.300781 C 18.859375 9.316406 18.863281 9.324219 18.871094 9.335938 " fill-opacity="1" fill-rule="nonzero"/><path fill="#037739" d="M 19.039062 11.078125 L 19.042969 11.082031 C 19.054688 11.085938 19.066406 11.089844 19.074219 11.09375 C 19.074219 11.09375 19.101562 11.097656 19.152344 11.101562 C 19.160156 11.101562 19.167969 11.105469 19.175781 11.105469 C 19.191406 11.109375 19.203125 11.117188 19.207031 11.117188 C 19.21875 11.128906 19.230469 11.140625 19.238281 11.160156 C 19.242188 11.179688 19.242188 11.195312 19.238281 11.203125 C 19.222656 11.253906 19.191406 11.292969 19.15625 11.316406 C 19.136719 11.328125 19.117188 11.339844 19.097656 11.347656 C 19.082031 11.351562 19.0625 11.351562 19.046875 11.351562 C 19.007812 11.355469 18.960938 11.339844 18.90625 11.308594 C 18.886719 11.292969 18.875 11.285156 18.871094 11.277344 L 18.847656 11.246094 L 18.832031 11.207031 L 18.824219 11.164062 L 18.824219 11.121094 L 18.835938 11.074219 L 18.847656 11.023438 C 18.859375 10.992188 18.875 10.960938 18.890625 10.929688 C 18.90625 10.898438 18.925781 10.867188 18.941406 10.835938 L 19.003906 10.738281 L 19.015625 10.71875 L 19.050781 10.636719 C 19.054688 10.625 19.0625 10.609375 19.070312 10.601562 C 19.078125 10.589844 19.085938 10.582031 19.09375 10.574219 L 19.109375 10.566406 C 19.121094 10.5625 19.132812 10.5625 19.144531 10.566406 C 19.167969 10.582031 19.171875 10.621094 19.160156 10.683594 C 19.160156 10.695312 19.152344 10.71875 19.136719 10.75 C 19.136719 10.757812 19.113281 10.804688 19.070312 10.890625 C 19.054688 10.921875 19.046875 10.941406 19.042969 10.949219 C 19.035156 10.976562 19.035156 11.019531 19.039062 11.078125 " fill-opacity="1" fill-rule="nonzero"/><path fill="#037739" d="M 18.078125 10.78125 C 18.089844 10.789062 18.101562 10.792969 18.109375 10.792969 C 18.113281 10.796875 18.140625 10.796875 18.191406 10.800781 C 18.199219 10.804688 18.203125 10.804688 18.210938 10.804688 C 18.230469 10.8125 18.238281 10.816406 18.242188 10.820312 C 18.257812 10.828125 18.265625 10.84375 18.273438 10.859375 C 18.277344 10.882812 18.28125 10.894531 18.277344 10.90625 C 18.257812 10.953125 18.230469 10.992188 18.191406 11.015625 C 18.175781 11.03125 18.152344 11.039062 18.132812 11.046875 C 18.117188 11.050781 18.101562 11.054688 18.082031 11.054688 C 18.042969 11.054688 17.996094 11.042969 17.945312 11.011719 C 17.921875 10.992188 17.910156 10.984375 17.90625 10.980469 L 17.882812 10.945312 L 17.867188 10.90625 L 17.859375 10.863281 L 17.863281 10.820312 L 17.871094 10.773438 L 17.886719 10.726562 C 17.898438 10.695312 17.910156 10.660156 17.925781 10.628906 C 17.945312 10.597656 17.960938 10.566406 17.980469 10.539062 L 18.042969 10.441406 L 18.050781 10.421875 L 18.085938 10.335938 C 18.09375 10.324219 18.097656 10.3125 18.105469 10.300781 C 18.113281 10.289062 18.121094 10.28125 18.128906 10.273438 L 18.144531 10.265625 C 18.15625 10.261719 18.167969 10.265625 18.179688 10.269531 C 18.203125 10.285156 18.210938 10.320312 18.199219 10.382812 C 18.195312 10.394531 18.1875 10.417969 18.175781 10.449219 C 18.167969 10.464844 18.164062 10.476562 18.15625 10.492188 C 18.121094 10.558594 18.101562 10.597656 18.097656 10.609375 C 18.085938 10.636719 18.074219 10.664062 18.066406 10.6875 C 18.0625 10.707031 18.058594 10.726562 18.0625 10.746094 C 18.0625 10.761719 18.066406 10.773438 18.078125 10.78125 " fill-opacity="1" fill-rule="nonzero"/><path fill="#037739" d="M 19.636719 9.378906 C 19.648438 9.386719 19.660156 9.390625 19.667969 9.390625 C 19.671875 9.394531 19.699219 9.398438 19.75 9.398438 C 19.757812 9.402344 19.765625 9.402344 19.769531 9.402344 C 19.789062 9.410156 19.800781 9.414062 19.800781 9.417969 C 19.816406 9.425781 19.824219 9.441406 19.832031 9.460938 C 19.835938 9.480469 19.839844 9.496094 19.835938 9.503906 C 19.816406 9.550781 19.789062 9.589844 19.75 9.613281 C 19.734375 9.628906 19.714844 9.636719 19.691406 9.644531 C 19.675781 9.648438 19.660156 9.652344 19.640625 9.652344 C 19.601562 9.652344 19.554688 9.640625 19.503906 9.609375 C 19.480469 9.59375 19.46875 9.582031 19.46875 9.578125 L 19.441406 9.542969 L 19.425781 9.503906 L 19.421875 9.460938 L 19.421875 9.417969 L 19.429688 9.371094 L 19.445312 9.324219 C 19.457031 9.292969 19.46875 9.257812 19.488281 9.226562 C 19.503906 9.195312 19.519531 9.164062 19.539062 9.136719 C 19.550781 9.113281 19.574219 9.078125 19.605469 9.03125 C 19.652344 8.953125 19.679688 8.90625 19.695312 8.886719 C 19.707031 8.863281 19.722656 8.859375 19.742188 8.867188 C 19.765625 8.882812 19.769531 8.921875 19.757812 8.980469 C 19.753906 8.992188 19.746094 9.015625 19.734375 9.046875 C 19.726562 9.0625 19.722656 9.074219 19.714844 9.089844 C 19.683594 9.15625 19.664062 9.195312 19.65625 9.207031 C 19.644531 9.238281 19.632812 9.261719 19.625 9.285156 C 19.621094 9.308594 19.617188 9.328125 19.621094 9.34375 C 19.621094 9.359375 19.625 9.371094 19.636719 9.378906 " fill-opacity="1" fill-rule="nonzero"/><path fill="#037739" d="M 16.023438 9.601562 C 16.128906 9.601562 16.199219 9.617188 16.242188 9.648438 C 16.265625 9.667969 16.289062 9.691406 16.3125 9.71875 L 16.445312 9.898438 C 16.464844 9.925781 16.480469 9.945312 16.5 9.960938 C 16.53125 9.992188 16.558594 10.003906 16.59375 9.996094 C 16.609375 9.988281 16.628906 9.976562 16.65625 9.957031 C 16.664062 9.871094 16.667969 9.800781 16.667969 9.746094 C 16.667969 9.703125 16.660156 9.621094 16.648438 9.507812 C 16.644531 9.484375 16.644531 9.464844 16.652344 9.449219 C 16.664062 9.425781 16.683594 9.417969 16.714844 9.429688 C 16.726562 9.433594 16.742188 9.4375 16.757812 9.449219 L 16.832031 9.511719 C 16.84375 9.519531 16.855469 9.519531 16.863281 9.515625 C 16.875 9.511719 16.886719 9.5 16.902344 9.484375 C 16.914062 9.425781 16.917969 9.378906 16.917969 9.347656 C 16.921875 9.265625 16.898438 9.203125 16.84375 9.160156 C 16.789062 9.113281 16.730469 9.097656 16.664062 9.113281 C 16.632812 9.125 16.605469 9.140625 16.582031 9.164062 C 16.566406 9.179688 16.546875 9.210938 16.527344 9.25 L 16.507812 9.292969 C 16.507812 9.375 16.507812 9.425781 16.5 9.453125 C 16.496094 9.484375 16.488281 9.5 16.472656 9.507812 C 16.464844 9.511719 16.457031 9.511719 16.445312 9.503906 C 16.390625 9.441406 16.355469 9.410156 16.339844 9.402344 C 16.308594 9.382812 16.277344 9.367188 16.238281 9.359375 C 16.132812 9.328125 16.046875 9.332031 15.988281 9.375 C 15.9375 9.421875 15.914062 9.46875 15.917969 9.515625 C 15.921875 9.535156 15.929688 9.554688 15.949219 9.566406 C 15.964844 9.574219 15.988281 9.585938 16.023438 9.601562 " fill-opacity="1" fill-rule="nonzero"/><g clip-path="url(#26abc65aad)"><path fill="#037739" d="M 17.257812 14.890625 L 17.261719 14.890625 C 17.273438 14.894531 17.28125 14.894531 17.289062 14.894531 C 17.316406 14.886719 17.339844 14.886719 17.367188 14.882812 C 17.386719 14.882812 17.40625 14.882812 17.421875 14.886719 C 17.457031 14.890625 17.480469 14.90625 17.488281 14.929688 L 17.492188 14.9375 L 17.488281 14.964844 L 17.480469 14.992188 L 17.46875 15.015625 C 17.457031 15.03125 17.445312 15.046875 17.429688 15.0625 L 17.40625 15.082031 C 17.390625 15.097656 17.371094 15.109375 17.351562 15.117188 C 17.335938 15.128906 17.316406 15.136719 17.292969 15.140625 C 17.25 15.152344 17.210938 15.152344 17.179688 15.136719 L 17.144531 15.117188 L 17.113281 15.085938 L 17.09375 15.050781 L 17.078125 15.007812 L 17.066406 14.960938 L 17.0625 14.914062 L 17.0625 14.859375 C 17.0625 14.828125 17.066406 14.792969 17.070312 14.757812 C 17.070312 14.742188 17.082031 14.6875 17.101562 14.589844 L 17.101562 14.472656 L 17.105469 14.453125 C 17.105469 14.4375 17.109375 14.425781 17.113281 14.414062 L 17.125 14.398438 L 17.136719 14.386719 C 17.148438 14.382812 17.160156 14.378906 17.171875 14.378906 L 17.199219 14.386719 L 17.21875 14.40625 L 17.226562 14.433594 L 17.230469 14.472656 L 17.230469 14.515625 C 17.230469 14.53125 17.226562 14.582031 17.21875 14.671875 C 17.214844 14.707031 17.214844 14.742188 17.214844 14.773438 L 17.21875 14.820312 L 17.230469 14.859375 C 17.234375 14.867188 17.242188 14.878906 17.257812 14.890625 " fill-opacity="1" fill-rule="nonzero"/></g><g clip-path="url(#39ab95a6c4)"><path fill="#037739" d="M 14.183594 11.300781 L 14.183594 11.296875 C 14.171875 11.289062 14.160156 11.285156 14.152344 11.28125 C 14.148438 11.277344 14.117188 11.273438 14.0625 11.261719 L 14.039062 11.253906 C 14.019531 11.246094 14.011719 11.238281 14.007812 11.238281 C 13.992188 11.222656 13.984375 11.207031 13.980469 11.1875 C 13.976562 11.164062 13.976562 11.148438 13.980469 11.136719 C 13.996094 11.101562 14.027344 11.066406 14.070312 11.035156 C 14.113281 11.003906 14.160156 10.992188 14.207031 10.996094 C 14.261719 11.003906 14.308594 11.023438 14.355469 11.058594 C 14.378906 11.082031 14.390625 11.09375 14.394531 11.101562 L 14.417969 11.140625 L 14.429688 11.1875 L 14.433594 11.234375 L 14.425781 11.28125 L 14.410156 11.332031 L 14.386719 11.382812 C 14.371094 11.417969 14.351562 11.449219 14.332031 11.484375 C 14.308594 11.515625 14.285156 11.546875 14.261719 11.578125 L 14.183594 11.679688 C 14.175781 11.691406 14.164062 11.703125 14.15625 11.71875 L 14.121094 11.78125 C 14.113281 11.796875 14.105469 11.808594 14.097656 11.820312 C 14.066406 11.855469 14.039062 11.867188 14.007812 11.847656 C 13.984375 11.832031 13.980469 11.789062 14.003906 11.722656 C 14.007812 11.707031 14.019531 11.683594 14.035156 11.652344 C 14.042969 11.636719 14.054688 11.621094 14.0625 11.609375 C 14.105469 11.539062 14.132812 11.5 14.140625 11.484375 C 14.15625 11.453125 14.171875 11.425781 14.183594 11.402344 C 14.195312 11.378906 14.199219 11.359375 14.199219 11.335938 C 14.199219 11.324219 14.195312 11.308594 14.183594 11.300781 " fill-opacity="1" fill-rule="nonzero"/></g><g clip-path="url(#2b95c6ff2d)"><path fill="#037739" d="M 16.136719 8.144531 L 16.105469 8.15625 C 15.890625 8.238281 15.777344 8.300781 15.769531 8.347656 C 15.742188 8.464844 15.734375 8.550781 15.75 8.605469 C 15.765625 8.644531 15.800781 8.65625 15.863281 8.640625 C 15.886719 8.628906 15.902344 8.617188 15.90625 8.597656 C 15.910156 8.597656 15.910156 8.570312 15.910156 8.519531 C 15.917969 8.492188 15.921875 8.472656 15.929688 8.464844 C 15.96875 8.417969 16.011719 8.382812 16.070312 8.355469 C 16.109375 8.332031 16.214844 8.285156 16.394531 8.222656 C 16.457031 8.199219 16.71875 8.113281 17.175781 7.972656 C 17.320312 7.921875 17.414062 7.890625 17.453125 7.871094 C 17.644531 7.792969 17.757812 7.722656 17.789062 7.664062 C 17.808594 7.621094 17.761719 7.621094 17.648438 7.65625 C 17.597656 7.667969 17.515625 7.695312 17.398438 7.738281 L 16.136719 8.144531 " fill-opacity="1" fill-rule="nonzero"/></g><path fill="#037739" d="M 16.003906 12.914062 L 15.992188 12.921875 C 15.941406 12.953125 15.902344 12.980469 15.875 13.011719 C 15.832031 13.066406 15.8125 13.109375 15.8125 13.140625 C 15.8125 13.167969 15.828125 13.179688 15.859375 13.175781 C 15.894531 13.164062 15.917969 13.15625 15.933594 13.144531 L 16.007812 13.105469 C 16.0625 13.074219 16.117188 13.039062 16.175781 13 C 16.179688 13 16.285156 12.929688 16.488281 12.789062 C 16.515625 12.765625 16.554688 12.746094 16.597656 12.71875 C 16.617188 12.707031 16.628906 12.699219 16.628906 12.695312 C 16.683594 12.652344 16.710938 12.601562 16.714844 12.546875 C 16.714844 12.503906 16.671875 12.503906 16.589844 12.550781 C 16.519531 12.585938 16.398438 12.664062 16.234375 12.777344 L 16.003906 12.914062 " fill-opacity="1" fill-rule="nonzero"/><path fill="#037739" d="M 17.648438 11.601562 C 17.667969 11.605469 17.671875 11.609375 17.679688 11.628906 C 17.6875 11.644531 17.6875 11.648438 17.6875 11.671875 C 17.6875 11.675781 17.683594 11.707031 17.683594 11.714844 C 17.683594 11.71875 17.683594 11.703125 17.683594 11.714844 C 17.683594 11.726562 17.679688 11.738281 17.671875 11.746094 C 17.664062 11.757812 17.652344 11.765625 17.636719 11.765625 C 17.625 11.765625 17.617188 11.761719 17.609375 11.757812 C 17.605469 11.757812 17.601562 11.753906 17.597656 11.746094 C 17.59375 11.742188 17.589844 11.734375 17.589844 11.71875 C 17.585938 11.703125 17.585938 11.691406 17.589844 11.679688 C 17.589844 11.65625 17.597656 11.636719 17.605469 11.625 C 17.617188 11.609375 17.632812 11.601562 17.648438 11.601562 M 17.675781 11.488281 L 17.664062 11.488281 C 17.578125 11.507812 17.519531 11.554688 17.488281 11.628906 C 17.476562 11.652344 17.476562 11.671875 17.480469 11.695312 C 17.480469 11.71875 17.503906 11.738281 17.527344 11.804688 C 17.53125 11.8125 17.539062 11.828125 17.539062 11.835938 C 17.539062 11.851562 17.523438 11.863281 17.480469 11.914062 C 17.453125 11.949219 17.417969 11.980469 17.417969 11.980469 C 17.277344 12.113281 17.1875 12.1875 17.136719 12.230469 C 17.046875 12.308594 16.988281 12.347656 16.957031 12.351562 C 16.914062 12.40625 16.886719 12.453125 16.871094 12.492188 C 16.859375 12.527344 16.851562 12.546875 16.851562 12.554688 C 16.855469 12.570312 16.859375 12.578125 16.871094 12.578125 C 16.921875 12.570312 17.058594 12.46875 17.28125 12.277344 C 17.503906 12.082031 17.636719 11.949219 17.671875 11.882812 C 17.738281 11.902344 17.777344 11.898438 17.792969 11.878906 C 17.804688 11.855469 17.816406 11.828125 17.8125 11.789062 C 17.8125 11.777344 17.808594 11.765625 17.800781 11.757812 C 17.789062 11.742188 17.769531 11.738281 17.753906 11.738281 C 17.773438 11.660156 17.761719 11.601562 17.746094 11.546875 C 17.734375 11.511719 17.710938 11.492188 17.675781 11.488281 Z M 17.675781 11.488281 " fill-opacity="1" fill-rule="nonzero"/><path fill="#037739" d="M 17.648438 11.601562 C 17.667969 11.605469 17.671875 11.609375 17.679688 11.628906 C 17.6875 11.644531 17.6875 11.648438 17.6875 11.671875 C 17.6875 11.675781 17.683594 11.707031 17.683594 11.714844 C 17.683594 11.71875 17.683594 11.703125 17.683594 11.714844 C 17.683594 11.726562 17.679688 11.738281 17.671875 11.746094 C 17.664062 11.757812 17.652344 11.765625 17.636719 11.765625 C 17.625 11.765625 17.617188 11.761719 17.609375 11.757812 C 17.605469 11.757812 17.601562 11.753906 17.597656 11.746094 C 17.59375 11.742188 17.589844 11.734375 17.589844 11.71875 C 17.585938 11.703125 17.585938 11.691406 17.589844 11.679688 C 17.589844 11.65625 17.597656 11.636719 17.605469 11.625 C 17.617188 11.609375 17.632812 11.601562 17.648438 11.601562 M 17.675781 11.488281 L 17.664062 11.488281 C 17.578125 11.507812 17.519531 11.554688 17.488281 11.628906 C 17.476562 11.652344 17.476562 11.671875 17.480469 11.695312 C 17.480469 11.71875 17.503906 11.738281 17.527344 11.804688 C 17.53125 11.8125 17.539062 11.828125 17.539062 11.835938 C 17.539062 11.851562 17.523438 11.863281 17.480469 11.914062 C 17.453125 11.949219 17.417969 11.980469 17.417969 11.980469 C 17.277344 12.113281 17.1875 12.1875 17.136719 12.230469 C 17.046875 12.308594 16.988281 12.347656 16.957031 12.351562 C 16.914062 12.40625 16.886719 12.453125 16.871094 12.492188 C 16.859375 12.527344 16.851562 12.546875 16.851562 12.554688 C 16.855469 12.570312 16.859375 12.578125 16.871094 12.578125 C 16.921875 12.570312 17.058594 12.46875 17.28125 12.277344 C 17.503906 12.082031 17.636719 11.949219 17.671875 11.882812 C 17.738281 11.902344 17.777344 11.898438 17.792969 11.878906 C 17.804688 11.855469 17.816406 11.828125 17.8125 11.789062 C 17.8125 11.777344 17.808594 11.765625 17.800781 11.757812 C 17.789062 11.742188 17.769531 11.738281 17.753906 11.738281 C 17.773438 11.660156 17.761719 11.601562 17.746094 11.546875 C 17.734375 11.511719 17.710938 11.492188 17.675781 11.488281 Z M 17.675781 11.488281 " fill-opacity="1" fill-rule="nonzero"/><path fill="#037739" d="M 20.34375 10.035156 C 20.359375 10.039062 20.367188 10.042969 20.371094 10.0625 C 20.378906 10.078125 20.382812 10.082031 20.378906 10.105469 C 20.378906 10.109375 20.378906 10.140625 20.378906 10.148438 C 20.375 10.15625 20.378906 10.136719 20.375 10.148438 C 20.375 10.160156 20.371094 10.171875 20.367188 10.179688 C 20.359375 10.191406 20.347656 10.199219 20.328125 10.199219 C 20.316406 10.199219 20.308594 10.195312 20.304688 10.191406 C 20.300781 10.191406 20.292969 10.1875 20.289062 10.179688 C 20.289062 10.175781 20.285156 10.167969 20.28125 10.15625 C 20.28125 10.136719 20.28125 10.125 20.28125 10.117188 C 20.285156 10.089844 20.289062 10.070312 20.300781 10.058594 C 20.3125 10.042969 20.324219 10.035156 20.34375 10.035156 M 20.367188 9.921875 L 20.359375 9.921875 C 20.273438 9.941406 20.210938 9.988281 20.179688 10.0625 C 20.171875 10.085938 20.171875 10.105469 20.171875 10.128906 C 20.175781 10.152344 20.199219 10.171875 20.222656 10.238281 C 20.226562 10.25 20.230469 10.261719 20.230469 10.269531 C 20.234375 10.285156 20.214844 10.296875 20.171875 10.347656 C 20.144531 10.382812 20.109375 10.414062 20.109375 10.414062 C 19.96875 10.546875 19.878906 10.621094 19.828125 10.664062 C 19.742188 10.742188 19.683594 10.78125 19.652344 10.785156 C 19.609375 10.839844 19.578125 10.886719 19.566406 10.925781 C 19.550781 10.960938 19.546875 10.980469 19.546875 10.988281 C 19.546875 11.003906 19.554688 11.011719 19.5625 11.011719 C 19.617188 11.003906 19.75 10.902344 19.972656 10.710938 C 20.199219 10.515625 20.332031 10.386719 20.363281 10.316406 C 20.429688 10.335938 20.46875 10.335938 20.484375 10.3125 C 20.5 10.292969 20.511719 10.261719 20.503906 10.222656 C 20.503906 10.210938 20.503906 10.203125 20.496094 10.191406 C 20.480469 10.179688 20.460938 10.171875 20.449219 10.171875 C 20.46875 10.09375 20.457031 10.035156 20.4375 9.980469 C 20.425781 9.945312 20.40625 9.925781 20.367188 9.921875 Z M 20.367188 9.921875 " fill-opacity="1" fill-rule="nonzero"/><path fill="#037739" d="M 15.035156 9.789062 L 15.039062 9.789062 C 15.058594 9.792969 15.0625 9.796875 15.070312 9.816406 C 15.078125 9.835938 15.078125 9.839844 15.078125 9.863281 C 15.078125 9.871094 15.078125 9.902344 15.074219 9.910156 C 15.074219 9.917969 15.078125 9.898438 15.074219 9.914062 C 15.074219 9.925781 15.070312 9.9375 15.0625 9.949219 C 15.054688 9.960938 15.039062 9.972656 15.023438 9.96875 C 15.007812 9.96875 15 9.964844 14.992188 9.960938 C 14.988281 9.960938 14.984375 9.953125 14.980469 9.945312 C 14.976562 9.941406 14.972656 9.933594 14.96875 9.917969 C 14.96875 9.902344 14.96875 9.886719 14.96875 9.875 C 14.972656 9.847656 14.976562 9.824219 14.988281 9.8125 C 15.003906 9.796875 15.019531 9.789062 15.035156 9.789062 M 15.0625 9.660156 L 15.054688 9.660156 C 14.957031 9.683594 14.890625 9.734375 14.855469 9.816406 C 14.84375 9.84375 14.847656 9.863281 14.847656 9.890625 C 14.851562 9.914062 14.875 9.941406 14.902344 10.011719 C 14.90625 10.023438 14.914062 10.039062 14.914062 10.046875 C 14.917969 10.066406 14.894531 10.078125 14.847656 10.136719 C 14.816406 10.171875 14.777344 10.210938 14.777344 10.210938 C 14.621094 10.355469 14.523438 10.4375 14.464844 10.488281 C 14.367188 10.570312 14.300781 10.617188 14.269531 10.621094 C 14.21875 10.683594 14.1875 10.734375 14.171875 10.777344 C 14.15625 10.816406 14.148438 10.839844 14.148438 10.847656 C 14.152344 10.867188 14.160156 10.875 14.167969 10.871094 C 14.226562 10.863281 14.378906 10.75 14.625 10.539062 C 14.875 10.320312 15.023438 10.175781 15.0625 10.101562 C 15.136719 10.121094 15.175781 10.117188 15.195312 10.09375 C 15.210938 10.070312 15.222656 10.039062 15.21875 9.996094 C 15.21875 9.980469 15.214844 9.972656 15.207031 9.960938 C 15.191406 9.945312 15.171875 9.9375 15.152344 9.9375 C 15.175781 9.851562 15.164062 9.785156 15.144531 9.726562 C 15.132812 9.6875 15.105469 9.664062 15.0625 9.660156 Z M 15.0625 9.660156 " fill-opacity="1" fill-rule="nonzero"/><g clip-path="url(#7eccf8f57d)"><path fill="#037739" d="M 18.242188 7.734375 L 18.246094 7.730469 C 18.25 7.695312 18.257812 7.671875 18.261719 7.652344 C 18.265625 7.648438 18.269531 7.636719 18.285156 7.617188 C 18.292969 7.601562 18.308594 7.585938 18.320312 7.574219 C 18.339844 7.554688 18.382812 7.53125 18.441406 7.5 C 18.476562 7.484375 18.507812 7.46875 18.542969 7.460938 C 18.570312 7.457031 18.59375 7.457031 18.621094 7.464844 C 18.65625 7.472656 18.675781 7.480469 18.683594 7.484375 C 18.695312 7.492188 18.707031 7.5 18.722656 7.507812 C 18.773438 7.542969 18.800781 7.585938 18.796875 7.640625 L 18.789062 7.675781 L 18.773438 7.710938 L 18.746094 7.742188 L 18.714844 7.773438 L 18.679688 7.800781 L 18.636719 7.824219 L 18.59375 7.84375 L 18.546875 7.863281 L 18.5 7.875 L 18.453125 7.882812 C 18.421875 7.886719 18.394531 7.886719 18.371094 7.882812 C 18.351562 7.878906 18.335938 7.875 18.328125 7.875 C 18.324219 7.871094 18.320312 7.863281 18.316406 7.855469 C 18.316406 7.84375 18.316406 7.835938 18.316406 7.828125 C 18.320312 7.820312 18.324219 7.816406 18.328125 7.816406 C 18.328125 7.8125 18.339844 7.808594 18.355469 7.804688 C 18.394531 7.792969 18.417969 7.785156 18.421875 7.785156 C 18.433594 7.777344 18.445312 7.773438 18.449219 7.765625 C 18.457031 7.757812 18.460938 7.742188 18.464844 7.71875 C 18.460938 7.699219 18.453125 7.683594 18.441406 7.679688 C 18.429688 7.671875 18.410156 7.671875 18.386719 7.679688 C 18.371094 7.683594 18.355469 7.6875 18.339844 7.695312 L 18.28125 7.722656 C 18.273438 7.726562 18.261719 7.730469 18.242188 7.734375 " fill-opacity="1" fill-rule="nonzero"/></g><path fill="#037739" d="M 19.242188 12.285156 L 19.242188 12.28125 C 19.242188 12.257812 19.246094 12.230469 19.257812 12.207031 C 19.273438 12.175781 19.292969 12.148438 19.320312 12.125 C 19.328125 12.117188 19.339844 12.109375 19.347656 12.101562 L 19.363281 12.09375 L 19.375 12.082031 L 19.441406 12.046875 C 19.476562 12.03125 19.511719 12.019531 19.546875 12.011719 C 19.597656 12 19.652344 12.015625 19.714844 12.050781 C 19.769531 12.085938 19.796875 12.132812 19.796875 12.191406 L 19.789062 12.226562 L 19.769531 12.261719 L 19.746094 12.292969 L 19.714844 12.324219 L 19.679688 12.347656 L 19.636719 12.375 L 19.59375 12.394531 L 19.546875 12.410156 L 19.5 12.421875 L 19.453125 12.429688 C 19.417969 12.433594 19.390625 12.433594 19.375 12.429688 C 19.355469 12.429688 19.34375 12.425781 19.328125 12.421875 C 19.324219 12.417969 19.320312 12.414062 19.316406 12.40625 C 19.3125 12.386719 19.3125 12.375 19.320312 12.367188 C 19.328125 12.363281 19.335938 12.355469 19.347656 12.347656 L 19.414062 12.3125 L 19.429688 12.304688 C 19.4375 12.296875 19.445312 12.289062 19.453125 12.28125 C 19.457031 12.273438 19.460938 12.265625 19.460938 12.257812 C 19.460938 12.246094 19.453125 12.234375 19.441406 12.226562 C 19.433594 12.222656 19.425781 12.222656 19.414062 12.222656 C 19.410156 12.222656 19.390625 12.222656 19.359375 12.234375 C 19.324219 12.242188 19.285156 12.261719 19.242188 12.285156 " fill-opacity="1" fill-rule="nonzero"/><path fill="#037739" d="M 19.339844 12.855469 L 19.339844 12.851562 C 19.394531 12.816406 19.425781 12.785156 19.425781 12.753906 C 19.398438 12.710938 19.347656 12.683594 19.28125 12.671875 C 19.230469 12.660156 19.179688 12.664062 19.128906 12.683594 C 19.082031 12.703125 19.035156 12.734375 18.988281 12.78125 C 18.929688 12.851562 18.898438 12.914062 18.894531 12.976562 C 18.894531 13.023438 18.902344 13.058594 18.914062 13.085938 C 18.925781 13.105469 18.929688 13.113281 18.929688 13.109375 C 18.933594 13.113281 18.9375 13.113281 18.941406 13.117188 C 18.960938 13.125 18.972656 13.128906 18.972656 13.128906 C 18.980469 13.136719 18.980469 13.140625 18.976562 13.140625 C 18.972656 13.160156 18.964844 13.175781 18.949219 13.195312 C 18.925781 13.222656 18.886719 13.261719 18.824219 13.320312 L 18.808594 13.339844 C 18.796875 13.355469 18.789062 13.371094 18.789062 13.382812 L 18.792969 13.402344 C 18.808594 13.425781 18.828125 13.429688 18.847656 13.417969 L 18.863281 13.40625 L 18.917969 13.363281 C 19.015625 13.296875 19.066406 13.261719 19.074219 13.257812 C 19.148438 13.210938 19.199219 13.1875 19.222656 13.179688 C 19.246094 13.171875 19.273438 13.167969 19.296875 13.167969 L 19.453125 13.15625 C 19.476562 13.152344 19.5 13.148438 19.515625 13.140625 L 19.542969 13.125 L 19.558594 13.105469 L 19.570312 13.074219 C 19.574219 13.070312 19.574219 13.058594 19.574219 13.03125 C 19.566406 12.988281 19.546875 12.957031 19.515625 12.941406 C 19.496094 12.9375 19.464844 12.9375 19.421875 12.945312 C 19.414062 12.949219 19.351562 12.964844 19.234375 12.996094 C 19.222656 13 19.199219 13.003906 19.15625 13.007812 C 19.121094 13.011719 19.097656 13.007812 19.085938 12.996094 L 19.078125 12.976562 C 19.078125 12.964844 19.078125 12.953125 19.085938 12.941406 C 19.097656 12.921875 19.117188 12.898438 19.148438 12.882812 C 19.179688 12.867188 19.210938 12.855469 19.242188 12.851562 L 19.269531 12.847656 C 19.296875 12.855469 19.320312 12.855469 19.339844 12.855469 " fill-opacity="1" fill-rule="nonzero"/><g clip-path="url(#56e3b74682)"><path fill="#037739" d="M 21.011719 14.34375 L 20.847656 14.355469 L 20.6875 14.363281 L 21.011719 14.34375 " fill-opacity="1" fill-rule="nonzero"/></g><path fill="#000401" d="M 9.683594 26.65625 L 15.949219 23.128906 L 12.910156 21.542969 L 12.839844 21.503906 L 10.695312 22.6875 L 10.542969 23.515625 L 11.335938 23.15625 C 11.339844 23.152344 11.34375 23.148438 11.351562 23.148438 L 11.355469 23.144531 C 11.375 23.136719 11.398438 23.128906 11.421875 23.121094 C 11.445312 23.113281 11.46875 23.105469 11.492188 23.101562 L 11.527344 23.097656 C 11.554688 23.09375 11.582031 23.09375 11.609375 23.09375 C 11.800781 23.09375 11.984375 23.179688 12.109375 23.332031 C 12.234375 23.484375 12.28125 23.675781 12.242188 23.867188 C 12.226562 23.960938 12.1875 24.046875 12.128906 24.125 C 12.074219 24.203125 12 24.265625 11.917969 24.3125 L 9.71875 25.722656 Z M 9.683594 26.65625 " fill-opacity="1" fill-rule="nonzero"/><g clip-path="url(#31703fde11)"><path fill="#000401" d="M 13.90625 20.679688 L 17.0625 22.3125 L 17.355469 22.453125 L 18.722656 22.464844 L 22.140625 20.695312 L 27.746094 17.789062 L 28.316406 17.496094 L 25.339844 13.257812 L 24.90625 13.511719 L 27.578125 17.464844 L 27.617188 17.519531 L 27.554688 17.554688 L 27.503906 17.578125 L 18.703125 22.089844 C 18.660156 22.113281 18.609375 22.128906 18.558594 22.128906 L 17.480469 22.128906 C 17.429688 22.128906 17.382812 22.113281 17.335938 22.089844 L 8.539062 17.578125 L 8.449219 17.53125 L 8.386719 17.5 L 8.425781 17.441406 L 11.082031 13.511719 L 10.648438 13.257812 L 7.691406 17.46875 L 8.265625 17.761719 Z M 13.90625 20.679688 " fill-opacity="1" fill-rule="nonzero"/></g><path fill="#000401" d="M 24.441406 23.328125 C 24.320312 23.328125 24.203125 23.382812 24.121094 23.480469 C 24.042969 23.578125 24.011719 23.699219 24.039062 23.824219 C 24.050781 23.882812 24.074219 23.9375 24.109375 23.988281 C 24.113281 23.992188 24.121094 24 24.125 24.003906 C 24.160156 23.824219 24.320312 23.679688 24.511719 23.679688 C 24.566406 23.679688 24.625 23.6875 24.679688 23.71875 L 25.195312 23.957031 L 25.53125 24.113281 L 25.589844 23.808594 L 24.621094 23.367188 C 24.558594 23.339844 24.503906 23.328125 24.441406 23.328125 Z M 24.441406 23.328125 " fill-opacity="1" fill-rule="nonzero"/><path fill="#000401" d="M 11.359375 23.71875 C 11.414062 23.691406 11.472656 23.679688 11.527344 23.679688 C 11.71875 23.679688 11.882812 23.824219 11.914062 24.007812 C 11.917969 24 11.921875 23.996094 11.925781 23.988281 C 11.964844 23.941406 11.988281 23.886719 12 23.824219 C 12.027344 23.699219 11.996094 23.578125 11.917969 23.484375 C 11.835938 23.386719 11.714844 23.328125 11.59375 23.328125 C 11.535156 23.328125 11.476562 23.339844 11.421875 23.367188 L 10.457031 23.808594 L 10.515625 24.113281 L 10.84375 23.960938 Z M 11.359375 23.71875 " fill-opacity="1" fill-rule="nonzero"/><path fill="#000401" d="M 23.210938 21.503906 L 23.140625 21.542969 L 20.101562 23.128906 L 26.367188 26.65625 L 26.085938 25.722656 L 24.132812 24.3125 C 24.050781 24.265625 23.980469 24.203125 23.921875 24.125 C 23.863281 24.046875 23.828125 23.960938 23.808594 23.867188 C 23.769531 23.671875 23.816406 23.484375 23.941406 23.332031 C 24.066406 23.179688 24.25 23.09375 24.441406 23.09375 C 24.472656 23.09375 24.5 23.09375 24.527344 23.097656 L 24.558594 23.101562 C 24.585938 23.109375 24.609375 23.113281 24.628906 23.121094 C 24.65625 23.128906 24.675781 23.136719 24.699219 23.144531 L 24.703125 23.148438 C 24.707031 23.148438 24.710938 23.152344 24.714844 23.15625 L 25.507812 23.515625 L 25.355469 22.6875 Z M 23.210938 21.503906 " fill-opacity="1" fill-rule="nonzero"/><g clip-path="url(#7494f0ff8c)"><path fill="#000401" d="M 16.273438 23.292969 L 9.667969 27 L 9.964844 27.570312 L 16.96875 23.65625 L 16.34375 23.328125 Z M 16.273438 23.292969 " fill-opacity="1" fill-rule="nonzero"/></g><g clip-path="url(#c469dbe636)"><path fill="#000401" d="M 21.292969 24.074219 L 21.292969 24.070312 L 19.652344 23.234375 L 18.742188 22.769531 L 18.574219 22.769531 L 18.390625 22.765625 L 17.300781 22.757812 L 17.285156 22.757812 L 17.269531 22.75 L 16.953125 22.585938 L 16.945312 22.585938 L 16.527344 22.367188 L 13.804688 20.964844 L 13.796875 20.964844 L 13.769531 20.953125 L 8.144531 18.046875 L 7.601562 17.761719 L 7.601562 18.441406 L 8.203125 18.753906 L 13.035156 21.28125 L 15.683594 22.667969 L 15.699219 22.671875 L 17.460938 23.582031 L 17.507812 23.605469 L 18.039062 23.882812 L 19.652344 23.949219 L 19.667969 23.949219 L 19.679688 23.953125 L 26.078125 27.5625 L 26.378906 26.992188 L 21.300781 24.078125 Z M 21.292969 24.074219 " fill-opacity="1" fill-rule="nonzero"/></g><g clip-path="url(#ccdea61f90)"><path fill="#000401" d="M 27.84375 18.070312 L 22.367188 20.902344 L 22.371094 20.90625 L 22.273438 20.957031 L 19.089844 22.605469 L 19.691406 22.917969 L 19.78125 22.964844 L 23.003906 21.28125 L 27.785156 18.78125 L 27.875 18.734375 L 27.875 18.738281 L 27.898438 18.722656 L 28.386719 18.441406 L 28.386719 17.789062 Z M 27.84375 18.070312 " fill-opacity="1" fill-rule="nonzero"/></g><path fill="#000401" d="M 17.285156 21.75 L 17.730469 21.292969 L 17.722656 21.273438 C 17.71875 21.269531 17.714844 21.265625 17.710938 21.257812 C 17.578125 21.046875 16.347656 19.167969 14.164062 18.914062 C 11.445312 18.601562 9.90625 17.34375 9.84375 17.289062 C 9.773438 17.234375 9.757812 17.132812 9.808594 17.058594 L 12.410156 13.132812 L 11.765625 13.019531 L 8.820312 17.402344 Z M 17.285156 21.75 " fill-opacity="1" fill-rule="nonzero"/><path fill="#000401" d="M 26.148438 17.054688 C 26.199219 17.128906 26.183594 17.230469 26.117188 17.289062 C 26.050781 17.339844 24.515625 18.597656 21.796875 18.914062 C 19.609375 19.167969 18.382812 21.042969 18.25 21.257812 C 18.246094 21.261719 18.242188 21.269531 18.238281 21.273438 L 18.226562 21.292969 L 18.675781 21.746094 L 27.140625 17.402344 L 24.191406 13.019531 L 23.550781 13.132812 Z M 26.148438 17.054688 " fill-opacity="1" fill-rule="nonzero"/><g clip-path="url(#5eb5b00de6)"><path fill="#000401" d="M 10.488281 17.335938 C 11.023438 17.695312 12.347656 18.445312 14.3125 18.675781 C 16.121094 18.886719 17.339844 20.226562 17.804688 20.925781 C 17.828125 20.960938 17.847656 20.992188 17.867188 21.019531 C 17.871094 21.027344 17.875 21.035156 17.882812 21.042969 C 17.90625 21.082031 17.941406 21.105469 17.984375 21.113281 C 18.023438 21.105469 18.058594 21.082031 18.082031 21.042969 L 18.085938 21.042969 C 18.089844 21.035156 18.09375 21.027344 18.101562 21.019531 C 18.121094 20.992188 18.140625 20.960938 18.160156 20.925781 C 18.628906 20.226562 19.84375 18.886719 21.652344 18.675781 C 23.617188 18.445312 24.941406 17.695312 25.476562 17.335938 C 25.628906 17.234375 25.667969 17.027344 25.566406 16.878906 L 23.1875 13.289062 L 23.164062 13.25 L 23.042969 13.046875 C 22.976562 12.941406 22.867188 12.886719 22.753906 12.886719 C 22.660156 12.886719 22.566406 12.925781 22.5 13.007812 C 22.128906 13.46875 21.324219 14.21875 19.746094 14.714844 C 19.070312 14.925781 18.5625 15.199219 18.183594 15.476562 C 18.140625 15.507812 18.089844 15.53125 18.039062 15.539062 C 18.019531 15.539062 18.003906 15.539062 17.984375 15.539062 C 17.917969 15.539062 17.847656 15.519531 17.785156 15.476562 C 17.40625 15.195312 16.902344 14.925781 16.222656 14.714844 C 14.648438 14.21875 13.839844 13.46875 13.46875 13.007812 C 13.40625 12.925781 13.308594 12.886719 13.214844 12.886719 C 13.105469 12.886719 12.996094 12.941406 12.929688 13.046875 L 12.808594 13.25 L 12.78125 13.289062 L 10.402344 16.878906 C 10.300781 17.027344 10.335938 17.234375 10.488281 17.335938 Z M 18.15625 15.871094 C 18.238281 15.847656 18.316406 15.8125 18.386719 15.761719 C 18.78125 15.46875 19.273438 15.230469 19.847656 15.050781 C 21.433594 14.550781 22.300781 13.800781 22.746094 13.253906 L 22.851562 13.429688 L 22.855469 13.433594 L 22.855469 13.4375 L 22.882812 13.476562 L 22.886719 13.480469 L 25.253906 17.050781 C 24.773438 17.371094 23.496094 18.101562 21.605469 18.324219 C 19.878906 18.523438 18.710938 19.660156 18.15625 20.339844 Z M 13.074219 13.484375 L 13.074219 13.480469 L 13.078125 13.476562 L 13.101562 13.441406 L 13.101562 13.4375 L 13.105469 13.433594 L 13.210938 13.253906 C 13.660156 13.804688 14.523438 14.550781 16.109375 15.050781 C 16.683594 15.230469 17.175781 15.472656 17.570312 15.761719 C 17.640625 15.8125 17.71875 15.851562 17.800781 15.875 L 17.800781 20.339844 C 17.246094 19.660156 16.078125 18.527344 14.351562 18.328125 C 12.460938 18.105469 11.179688 17.375 10.703125 17.054688 Z M 13.074219 13.484375 " fill-opacity="1" fill-rule="nonzero"/></g></svg>